<svg xmlns="http://www.w3.org/2000/svg" width="1599" height="235" fill="none" viewBox="0 0 1599 235">
  <path fill="#038781" d="M630.2 1.2c-.267.266-7.067 1.466-15.2 2.666-13.6 2-23.733 3.867-39.467 7.334-6.4 1.333-39.467 13.067-41.867 14.8-.666.533-5.866 3.333-11.333 6.133-16.533 8.4-34.8 23.067-45.6 36.533-8.267 10.267-15.6 26.667-17.067 37.6-3.2 25.867 4.934 48.134 25.334 68.934 37.2 37.866 99.733 59.066 174.4 58.933 14.8 0 27.467-.267 28-.667.533-.266 6.133-1.333 12.267-2.133 30.666-4 54.533-10.8 80.666-23.067 8.134-3.733 14.934-7.066 15.334-7.466.4-.534 5.2-3.734 10.666-7.467 40.534-26.667 57.067-65.733 42.934-101.466-2.4-6-6.267-13.734-8.534-17.2C835.267 66.4 818.2 49.6 808.067 42.4c-10.934-7.733-41.334-23.067-45.734-23.067-.8 0-2.4-.533-3.733-1.2C741.933 9.333 690.067.666 654.2.666c-12.933 0-23.733.267-24 .534ZM703 41.867c5.867 1.6 12.533 3.466 14.667 4 30 8.133 56.933 27.6 66.266 47.733 3.467 7.466 4.267 11.2 4.8 21.466.534 10.534.134 13.467-2.533 20.667-1.6 4.533-4 9.867-5.067 11.733-4.933 8.134-19.6 21.867-28.8 27.067-2.133 1.2-4.933 2.667-6 3.467-8 4.933-24.533 10.8-40 14.133-20 4.4-25.866 4.933-50 4.933-24.133.134-29.6-.533-50-4.933-34.4-7.467-61.6-24-74.8-45.333-6.133-10.134-8.4-18-8.4-30.134 0-10.266.533-12.4 4.933-21.733C541.267 66.666 575 47.2 625 38.8c1.867-.267 17.733-.4 35.333-.133 27.734.4 33.467.8 42.667 3.2Zm-383.067-24c-2 2.133-6.266 7.866-9.6 12.8-3.333 4.8-8.666 12.666-12 17.466-3.333 4.667-8.666 12.4-12 17.2-3.333 4.934-8.666 12.667-12 17.334-3.333 4.666-8.666 12.4-12 17.333-3.333 4.8-8.666 12.533-12 17.2-3.333 4.667-11.333 16.4-18 26-23.2 33.867-24.4 35.333-28.533 31.6-1.333-1.2-7.067-8.933-12.667-17.2-5.6-8.133-13.866-20-18.266-26.267-4.267-6.266-10.134-14.666-12.934-18.666-2.8-4-8.133-11.6-11.6-16.667-3.6-5.2-8.8-12.667-11.6-16.667-9.466-13.733-36.933-52.666-41.2-58.4l-4.266-5.6L45.8 15.6.333 16v209.333l36.534.4c28.4.267 36.8-.133 37.733-1.333.533-.933 1.067-32.8 1.067-70.667 0-46.4.4-69.2 1.333-69.733 2.267-1.467 4.267.933 20.267 23.467 8.266 11.733 19.333 27.2 24.666 34.4 9.867 13.6 16.267 22.666 24.4 34.266 2.534 3.734 9.2 13.067 14.667 20.667 5.467 7.6 11.733 16.4 13.867 19.6 6.4 9.467 6.666 9.6 32.533 9.6 22.133 0 23.2-.133 26-3.067 4.133-4.266 5.067-5.466 28.133-38.266 3.334-4.8 10.4-14.534 15.467-21.734 5.2-7.066 12-16.666 15.067-21.333 7.466-10.8 13.333-19.067 23.466-32.933 4.534-6.267 10.267-14.534 12.8-18.4 3.067-4.534 5.6-6.934 7.334-6.934 1.466 0 2.666.8 2.8 1.6 0 .934.133 31.734.133 68.267 0 36.533.533 67.867 1.2 69.6l1.2 3.2h34c21.067 0 35.2-.533 36.8-1.333 2.533-1.334 2.533-4 2.533-104.4 0-78.4-.4-103.467-1.6-104.667-1.2-1.2-13.066-1.6-45.466-1.6H323.4l-3.467 3.867Z"/>
  <path fill="#038781" d="M855.533 16.4c.8 1.467 3.6 4.267 6.4 6.267 2.8 2.133 8.4 6.666 12.4 10 4 3.466 14.8 12.4 24 20s17.6 14.533 18.667 15.6c1.067.933 5.6 4.666 9.867 8.133 4.266 3.467 11.333 9.2 15.466 12.933C946.6 92.933 954.6 99.6 960.067 104c5.6 4.4 10.533 9.2 11.066 10.533.934 2.934-2.133 6.134-25.333 25.467-8 6.533-15.467 12.933-16.8 14-1.333 1.067-8.8 7.333-16.667 14-13.333 11.067-23.2 19.6-33.466 28.4-2.134 2-10.134 8.667-17.6 14.667-7.467 6.133-13.6 12-13.6 13.066 0 1.6 6.4 1.867 39.866 1.867h39.734l5.2-3.467c2.8-2 7.066-5.066 9.2-6.8 2.266-1.866 6.666-5.6 9.866-8.266 5.2-4.267 9.067-7.467 22.8-19.067 23.067-19.467 42.137-34.4 44.137-34.4s19.2 13.333 39.46 30.533c3.07 2.667 9.2 7.734 13.6 11.467 4.54 3.6 12.14 10.133 17.2 14.4 4.94 4.267 11.6 9.467 14.8 11.733l5.87 3.867h39.73c23.07 0 40-.533 40.54-1.2.53-1.067-28.54-26.533-51.87-45.467-6.27-5.066-52.53-43.733-54.93-46-.8-.666-5.2-4.4-9.74-8-9.86-8.133-10.26-10.533-2.4-16.933 3.07-2.667 13.07-10.933 22.14-18.533 9.06-7.6 18.8-15.734 21.6-17.867 6.4-4.933 45.2-37.333 57.46-47.733 4.94-4.4 9.07-8.4 9.07-9.067 0-.667-17.87-1.2-42.53-1.2h-42.4l-5.2 3.467c-2.8 2-5.47 3.866-5.87 4.4-.4.533-4.53 4.133-9.33 8.133-4.8 4-11.47 9.733-14.8 12.667-3.34 2.933-8.94 7.733-12.54 10.666-6.4 5.334-12.93 10.8-22.8 18.934-2.8 2.4-6.26 4.4-7.6 4.4-2.26 0-10.4-5.6-18.263-12.8-4-3.6-15.467-13.467-25.467-21.867-8.8-7.333-17.6-15.067-18.533-16.133-.4-.4-3.867-3.2-7.734-6.267l-7.2-5.6h-43.2c-41.733 0-43.2.133-42 2.4Zm502.667 2.533c-3.6 4-19.07 23.6-24.13 30.4-.54.667-2.94 3.734-5.34 6.667-4.66 5.6-10.53 13.2-15.06 19.333-1.47 2-4.8 6.134-7.34 9.334-2.53 3.2-9.33 11.733-15.06 19.2-12.94 16.8-18.8 24.266-28.14 36.133-10.13 12.8-30.13 38.533-34.13 43.867-1.87 2.4-9.07 11.733-16 20.666-6.93 8.934-12.67 17.2-12.67 18.534 0 2.133 2.94 2.266 36.54 2.666 36.4.267 36.53.267 39.86-2.666 1.74-1.734 12-14.8 22.67-29.067 10.67-14.267 20.13-26.933 21.2-28 .93-1.067 9.33-12.267 18.67-24.667 9.33-12.533 17.46-23.333 18-24 .53-.8 8.66-11.6 18-24 21.2-28.266 21.2-28.266 24.13-26.533 1.2.8 6 6.533 10.67 12.667 4.66 6.133 13.86 18.533 20.66 27.466 6.8 8.934 29.07 38.8 49.6 66.267 20.54 27.467 38.67 50.533 40.4 51.333 2 .934 16.54 1.467 40.27 1.467 35.6 0 37.33-.133 37.33-2.533 0-1.334-.93-3.2-2.13-4.134-1.07-1.066-4.53-5.2-7.73-9.2-3.07-4.133-12.27-15.733-20.27-26-8-10.133-16-20.533-17.87-22.933-6.4-8.533-24.53-31.867-35.86-46-6.27-8-16-20.267-21.47-27.333-5.47-7.2-13.87-18-18.67-24-4.8-6-11.06-14-14-17.867-12.26-15.867-22.66-28.8-24.66-30.267-1.47-1.2-11.6-1.6-37.47-1.733h-35.47l-4.53 4.933Z"/>
</svg>
