<svg xmlns="http://www.w3.org/2000/svg" width="2130" height="1860" fill="none" viewBox="0 0 2130 1860">
  <path fill="#F39700" fill-rule="evenodd" d="M666.911 1802.02s16.247 53.91 175.217 56.47c103.246 1.49 217.642-12.03 221.692-27.49-98.297-85.68-207.438-149.64-355.681-157.03 73.131 55.2 136.695 59.27 191.223 122.38-27.88 8.81-88.569 40.58-232.451 5.67Z" clip-rule="evenodd"/>
  <path fill="#F39700" fill-rule="evenodd" d="M1458.01 1803.97s-16.53 53.79-175.53 55.56c-103.22 1.02-217.59-13.09-221.55-28.51 98.69-85.22 208.14-148.66 356.47-155.36-73.42 54.88-137.02 58.63-191.81 121.47 27.79 8.98 88.31 40.97 232.42 6.84Z" clip-rule="evenodd"/>
  <path fill="#F39700" fill-rule="evenodd" d="M1707.65 1684.55s-5.61 56.03-161.13 89.33c-100.99 21.5-215.88 30.36-222.77 15.97 79.99-103.11 174.81-186.99 318.93-222.97-61.22 68.35-122.81 84.65-164.22 157.13 29.04 3.29 94.69 22.64 229.19-39.46ZM1624.06 3.006c106.96 38.294 207.93 135.898 239.72 236.259-88.73-43.418-210.76-146.886-239.72-236.259Z" clip-rule="evenodd"/>
  <path fill="#F39700" fill-rule="evenodd" d="M1886.55 164.657s42.81 61.581 61.67 115.816c37.54 108.41 32.34 164.746 44.68 188.167-82.14-62.419-185.36-150.468-200.49-214.174 24.72 19.075 101.06 67.567 131.61 85.208 2.23-24.865-15.01-116.411-37.47-175.017Z" clip-rule="evenodd"/>
  <path fill="#F39700" fill-rule="evenodd" d="M2020 402.139s61.75 53.543 65.16 165.559c3.32 108.325-24.4 143.377-25.96 185.095-10.82-40.285-68.98-82.148-96.51-145.878-32.64-53.507-36.18-103.274-57.87-160.424 49.35 87.94 97.98 132.705 128.49 159.125-3.42-79.04 17.92-165.365-13.31-203.477Z" clip-rule="evenodd"/>
  <path fill="#F39700" fill-rule="evenodd" d="M2121.31 655.6s18.13 38.111-.43 193.229c-12.64 101.72-57.88 144.81-74.02 198.901-14.42-57.102-38.37-106.979-45.46-172.846-12.99-71.002-9.25-90.04-22.21-152.276 43.51 62.309 65.24 112.854 78.98 158.991 22.77-78.98 55.77-189.417 63.14-225.999Z" clip-rule="evenodd"/>
  <path fill="#F39700" fill-rule="evenodd" d="M2117.74 942.499s20.9 81.301-52.95 207.761c-46.75 78.91-96.37 104.39-121.93 132.88-8.51-94.43-6.67-244.47 38.7-335.869-17.71 75.359 25.21 101.819 17.67 196.949 41.6-27.7 87.72-110.31 118.51-201.721Z" clip-rule="evenodd"/>
  <path fill="#F39700" fill-rule="evenodd" d="M2029.66 1233.59s-22.82 97.28-98.73 179.07c-43.83 47.46-70.09 65.71-138.6 102.87 10.34-64.38 47.18-242.86 131.81-325.35-11.16 92.15-24.36 143.36-49.27 209.18-1.48.73 140.91-149.71 154.79-165.77Z" clip-rule="evenodd"/>
  <path fill="#F39700" fill-rule="evenodd" d="M1925.68 1458.07s-22 69.45-139.37 146.02c-75.91 49.58-166.29 93.27-176.44 83.72 33.01-109.7 79.85-214.96 186.34-289.39-40.93 67.98-77.45 114-88.57 190.07 24.77-5.76 127.54-37 218.04-130.42ZM417.828 1681.44s5.327 56.05 160.637 90.1c100.963 21.94 215.745 31.4 222.727 17.07-79.497-103.51-173.912-187.85-317.795-224.54 60.858 68.66 122.356 85.24 163.464 157.93-29.064 3.16-94.814 22.21-229.033-40.56ZM509.465.297c-107.16 37.82-208.606 134.89-240.883 235.104C357.526 192.433 480.123 89.523 509.465.297Z" clip-rule="evenodd"/>
  <path fill="#F39700" fill-rule="evenodd" d="M246.166 160.672s-43.064 61.411-62.126 115.525c-38.148 108.204-33.171 164.6-45.613 187.996 82.408-62.042 186.029-149.617 201.515-213.238-24.836 18.965-101.398 67.093-132.02 84.564-2.138-24.877 15.546-116.313 38.244-174.847Z" clip-rule="evenodd"/>
  <path fill="#F39700" fill-rule="evenodd" d="M111.639 397.497s-62.03 53.276-65.92 165.28c-3.925 108.276 23.69 143.486 25.006 185.228 11.017-40.261 69.362-81.821 97.194-145.441 32.917-53.349 36.698-103.08 58.671-160.12-49.708 87.697-98.655 132.195-129.29 158.481 3.854-79.028-17.08-165.462 14.339-203.428Z" clip-rule="evenodd"/>
  <path fill="#F39700" fill-rule="evenodd" d="M9.058 650.509s-18.276 38.003-.435 193.217c12.14 101.733 57.186 145.041 73.095 199.244 14.641-57.032 38.813-106.775 46.266-172.593 13.263-70.966 9.7-90.04 22.903-152.216-43.813 62.115-65.799 112.55-79.739 158.651-22.36-79.101-54.866-189.697-62.09-226.303Z" clip-rule="evenodd"/>
  <path fill="#F39700" fill-rule="evenodd" d="M11.313 937.412s-21.333 81.198 51.955 207.978c46.41 79.15 95.865 104.92 121.281 133.5 8.915-94.37 7.876-244.44-37.061-336.039 17.25 75.449-25.79 101.679-18.675 196.849-41.422-27.94-87.12-110.73-117.5-202.288Z" clip-rule="evenodd"/>
  <path fill="#F39700" fill-rule="evenodd" d="M97.99 1228.93s22.323 97.37 97.87 179.56c43.56 47.65 69.773 66.01 138.096 103.5-10.026-64.43-45.999-243.12-130.304-326.02 10.751 92.24 23.736 143.55 48.355 209.47 1.401.72-140.198-150.38-154.017-166.51Z" clip-rule="evenodd"/>
  <path fill="#F39700" fill-rule="evenodd" d="M200.847 1453.87s21.683 69.57 138.773 146.7c75.595 49.96 165.747 94.08 175.978 84.59-32.482-109.83-78.808-215.35-184.966-290.26 40.601 68.17 76.876 114.34 87.639 190.51-24.739-5.92-127.333-37.64-217.424-131.54Z" clip-rule="evenodd"/>
  <path fill="#F39700" d="M542.445 446.964c11.815 1.931 25.839-.546 42.147-7.418 9.193-25.934 12.913-46.757 11.234-62.54l27.24-11.255c-.821 18.649-5.049 39.131-12.635 61.556 29.523-18.2 51.955-36.193 67.284-53.895l12.478 22.813c-25.403 25.667-53.271 45.968-83.749 60.792-30.417 14.618-58.164 20.13-83.254 16.585l-24.522 33.947 47.8 34.931c4.711-9.847 9.869-20.228 15.172-31.167 4.566-9.252 8.976-19.717 13.324-31.373l19.352 14.132c-13.251 31.519-33.002 70.177-59.251 115.987l-21.321-11.802c5.943-8.244 11.838-18.188 17.709-29.722l-50.349-36.739-22.42 31.045-17.081-12.421 23.87-33.024-84.124-61.435 131.018-181.38 16.863 12.287-113.067 156.454 11.488 8.341 106.17-146.959 15.353 11.158L442.98 462.857l12.261 8.936 106.17-146.971 15.112 11.037L470.317 482.83l13.203 9.628 123.347-170.72 17.069 12.457-81.491 112.769ZM859.67 168.907l50.493-20.106-7.211-18.333-50.542 20.118 7.26 18.321Zm65.134 17.047-7.538-19.232-50.554 20.106a347.313 347.313 0 0 1 6.221 19.778l51.871-20.652Zm-23.689 29.576c8.638 7.175 22.239 12.056 40.77 14.715 18.639 2.671 37.375 2.003 56.352-1.979l-6.318 25.497c-20.161 4.177-41.76 3.642-64.796-1.506-22.927-5.063-40.093-13.889-51.496-26.565-.737 19.754-8.105 38.986-22.154 57.696-14.266 18.564-30.296 33.583-48.09 44.886l-23.713-12.25c18.772-11.547 34.307-24.963 46.677-40.322 12.357-15.31 18.76-28.228 19.291-38.876l-65.4 26.043-6.897-17.435 70.401-28.034c-.471-3.533-1.402-7.018-2.513-10.49-1.063-3.169-2.053-6.326-3.104-9.495l-87.881 34.991c.133.425.507 1.251.918 2.416 14.556 36.837 18.289 72.387 11.355 106.699l-27.349-8.257c2.779-12.918 3.274-27.925 1.462-45.08-1.727-17.423-10.956-47.315-27.675-89.749l-17.914-45.53 105.3-41.936c-6.234-5.634-11.561-9.592-15.861-11.814l27.735-12.797c5.194 3.545 10.715 8.001 16.404 13.343l104.575-41.596 6.934 17.69-214.03 85.232 21.14 53.714 88.496-35.259-7.248-18.345-72.877 29.054-6.801-17.229 72.89-29.054-5.424-13.707 25.814-10.26 5.424 13.744 76.501-30.45 14.049 35.537 23.266-9.276 7.067 17.909-23.29 9.288 14.459 36.643-56.449 22.194Zm418.935-41.537c-1.9 19.803 1.65 42.507 10.76 68.089 9.05 25.667 25.07 50.678 48.02 75.046l-28.81 13.112c-41.63-44.109-61.5-99.571-59.51-166.482l-4.55-1.602c-31.18 49.694-84.03 80.157-158.5 91.363l-14.1-28.787c30.82-2.877 59.22-10.879 85.17-23.991 25.75-13.198 44.58-29.516 56.35-49.124l-97.27-33.717 8.17-23.82 102.1 35.403c7.1-12.76 14.78-31.166 23.03-55.11l29.59 10.248c-8.89 25.764-16.06 44.328-21.69 55.62l119.54 41.486-8.14 23.81-90.16-31.544Zm289.71 319.169-15.21 8.244c-14.79-11.935-31.1-27.719-48.79-47.4l58.72 109.478-16.83 9.119-58.71-109.455-8.55 4.626c-14.83 8.026-26.6 4.019-35.14-11.971l-20.84-38.804 13.58-15.14 18.58 36.533c2.8 5.294 6.33 6.812 10.5 4.553l8.49-4.638-61.37-114.517 16.83-9.118 61.44 114.529 8.94-4.868c8.16 11.242 19.4 24.986 33.69 41.317l-59.54-111.033 15.37-8.378 78.84 146.923Zm5.58-88.79c-8.81-5.67-18.15-13.817-28.21-24.55l7.88-18.952c8.56 11.097 15.95 18.867 22.19 23.433.15-4.626.37-12.348.53-23.105l16.54 8.778c-.04 4.322.04 8.207.36 11.704a276.08 276.08 0 0 1-.57 14.606c5.5 3.825 13.01 7.588 22.66 11.17l-1.81 19.05c-8.65-3.691-16.02-7.455-22.18-11.146-.7 7.006-1.64 13.987-2.9 21.005l-19.28-11.353c3.89-12.517 5.39-19.414 4.79-20.64Zm15.99 107.463-102.19-190.51-30.59 16.573-12.56-23.481 47-25.497 7.1 13.198 78.41-46.186c12.77 22.571 25.19 40.819 37.16 54.77l-9.19 19.972c-7.88-8.414-18.22-23.08-30.82-43.951l-10.24 6.556 22.07 41.147-14.1 7.661-21.66-40.321-11.73 6.641 21.5 40.115-14.38 7.819-21.25-39.605-13.62 8.086 88.62 165.183 14.05-7.333-19.86-36.886 14.45-7.807 20.18 37.724 12.17-5.901-20.5-38.27 14.1-7.649 20.83 38.768 11.6-5.913-22.52-41.949 16.48-8.911 34.92 65.187-83.79 41.596 7.52 13.999-47.04 25.497-12.69-23.749 30.57-16.573Zm25.82-132.122c-9.16-6.398-18.9-14.412-29.21-24.04l6.68-20.992c11.12 13.04 19.13 21.15 24.13 24.392.42-5.901.47-13.659.13-23.239l17.41 8.985c.27 8.681.11 17.69-.26 27.039 8.09 5.366 14.69 8.693 19.87 9.956l-2.29 18.284c-6.22-1.626-12.78-4.771-19.58-9.494-.65 4.869-1.78 11.558-3.51 19.948l-18.03-11.012c4.12-11.304 5.69-17.921 4.66-19.827Z"/>
  <path fill="#F39700" fill-rule="evenodd" d="M1897.86 875.737c-.24 17.885-13.82 29.832-38.44 45.021-13.82 8.523-39.84 18.127-60.68 35.477-17.67 14.666-28.9 45.435-5.4 66.485 10.82 9.68 27.84 17.03 46.34 27 8.89 4.82 17.92 7.52 25.02 16.75 9.64 12.54 8.08 21.98 2.97 31.85-5.39 10.3-10.31 19.83-27.9 30.72-10.73 9.42 27.49-4.66 37.21-32 7.34-20.59 5.66-28.51-4.77-41.62-7.02-7.83-33.77-22.42-40.07-26.96-22.44-16.07-31.08-20.42-28.72-35.498 3.57-22.765 51-43.029 81.74-61.034 25.59-16.185 35.75-33.741 36.76-50.496 2.22-36.351-21.66-54.175-44.87-68.004-35.97-21.478-75.6-35.61-65.34-65.126 8.21-23.615 43.23-27.148 67.33-52.208 12.91-13.464 17.24-23.627 20.05-38.561 0 0 8.48-28.131-3.37-50.095 0 0-20.34-36.339-56.19-33.498 0 0-1.31-6.216-22-10.988 0 0-19.46-3.108-29.78 13.963 0 0-3.92 1.542-13.11 4.626l5.25 13.865 12.87.692s2.59 3.995 14.36 8.718c0 0 19.41 1.602 28.44-13.975 0 0 10.63-2.028 26.22 16.852 0 0 11.79 15.31 4.95 41.074-6.34 30.487-26.33 37.541-52.71 50.241-20.11 9.713-39.83 31.337-41.26 46.052 0 0-8.32 35.963 36.01 65.187 22.81 15.031 89.69 28.217 89.09 65.49Zm-1665.842-4.044c.229 17.872 13.698 29.892 38.22 45.227 13.807 8.608 39.767 18.321 60.544 35.744 17.6 14.812 28.701 45.59 5.086 66.506-10.896 9.62-27.929 16.92-46.435 26.79-8.963 4.76-17.999 7.44-25.15 16.63-9.713 12.46-8.13 21.94-3.105 31.84 5.315 10.35 10.195 19.9 27.772 30.86 10.678 9.46-27.458-4.78-37.122-32.19-7.223-20.61-5.508-28.51 5.074-41.59 6.994-7.81 33.823-22.25 40.153-26.75 22.505-15.99 31.154-20.28 28.859-35.369-3.443-22.813-50.76-43.296-81.454-61.435-25.489-16.306-35.527-33.911-36.469-50.678-2.005-36.339 21.949-54.077 45.154-67.785 36.07-21.284 75.777-35.27 65.642-64.822-8.07-23.664-43.053-27.306-67.007-52.536-12.949-13.501-17.202-23.7-19.907-38.634 0 0-8.348-28.168 3.623-50.083 0 0 20.56-36.254 56.341-33.243 0 0 1.341-6.216 22.057-10.818 0 0 19.437-3.108 29.692 14.06 0 0 3.938 1.554 13.035 4.699l-5.231 13.792-12.925.668s-2.573 3.995-14.339 8.62c0 0-19.461 1.518-28.424-14.071 0 0-10.582-2.089-26.237 16.706 0 0-11.923 15.213-5.17 41.05 6.185 30.511 26.152 37.65 52.426 50.484 20.113 9.81 39.682 31.555 41.059 46.294 0 0 8.142 35.951-36.372 64.993-22.843 14.958-89.753 27.779-89.39 65.041Z" clip-rule="evenodd"/>
  <path fill="#F39700" d="M435.232 1197.8c-9.313 4.23-16.706 6.25-22.215 6.06-7.815-.28-14.181-4.4-18.965-12.46-5.979-10.16-5.641-19.88.979-29.14 4.481-6.24 12.369-12.74 23.724-19.58 27.421-16.33 46-16.23 55.954.49 4.506 7.6 5.375 14.68 2.585 21.2-2.174 5.16-7.091 10.43-14.568 15.83l-7.852-13.3c8.842-5.31 11.548-11.06 8.033-17.3-2.392-4.42-7.852-5.43-16.284-2.98-5.725 1.68-12.273 4.71-19.605 9.08-18.941 11.38-26.177 20.8-21.708 28.38 1.752 2.92 4.518 4.47 8.408 4.7 3.781.17 8.263-1.38 13.541-4.51l7.973 13.53Zm21.976 85.11-8.529-11.96 31.879-23.06-14.194-19.81-31.878 23.05-8.541-11.9 73.023-52.86 8.54 11.96-29.197 21.09 14.206 19.79 29.185-21.09 8.54 11.92-73.034 52.87Zm66.124 27.3 14.35-22.58-23.036 13.49 8.686 9.09Zm-7.357 38.95-10.425-10.96 10.328-16.36-13.07-13.77-16.73 9.69-10.341-10.89 79.944-46.77 10.208 10.68-49.914 78.38Zm60.919 55.61-14.145-11.95 21.84-57.49-37.327 44.3-11.427-9.71 58.128-69.06 14.641 12.44-20.91 55.34 35.852-42.6 11.44 9.74-58.092 68.99Zm69.11 52.44-12.031-8.53 3.479-5c-6.559 1.84-12.237 1.06-17.129-2.4-9.181-6.5-12.297-15.65-9.338-27.37 1.993-7.24 6.668-16.09 14.049-26.63 18.168-25.86 35.043-33.24 50.554-22.22 12.949 9.22 14.737 22.39 5.242 39.56l-12.756-9.04c6.028-8.62 6.149-15.03.181-19.26-7.586-5.41-18.288 1.59-31.89 20.96-12.346 17.6-14.87 29.01-7.478 34.19 5.424 3.85 12.31 2.13 20.79-5.18l2.863-4.12-7.913-5.57 8.239-11.69 19.956 14.16-26.818 38.14Zm113.257 60.96-13.445-6.06 2.549-5.58c-6.112 3.08-11.85 3.37-17.322.92-10.232-4.64-14.991-12.99-14.291-25.08.532-7.47 3.479-17.08 8.722-28.83 12.877-28.82 28.037-39.35 45.359-31.5 14.436 6.54 18.664 19.17 12.624 37.83l-14.23-6.45c4.337-9.62 3.177-15.91-3.443-18.93-8.54-3.86-17.588 5.08-27.288 26.75-8.818 19.59-9.12 31.24-.894 35.01 6.016 2.68 12.527-.36 19.412-9.11l2.054-4.57-8.794-3.98 5.822-13.09 22.275 10.12-19.11 42.55Zm85.956 3.7c-6.342 18.13-17.842 24.24-34.536 18.41-8.903-3.14-14.399-7.87-16.622-14.17-1.92-5.52-1.34-12.71 1.752-21.57l20.874-60.09 14.145 4.97-20.173 57.99c-3.539 10.26-1.909 16.59 4.844 18.97 7.248 2.56 12.696-1.3 16.223-11.61l20.125-57.95 14.17 4.98-20.802 60.07Zm81.351 49.36-17.974-4.24-6.523-61.22-13.288 56.54-14.568-3.44 20.571-88.05 18.736 4.43 6.342 58.82 12.72-54.34 14.605 3.47-20.621 88.03Zm85.742 11.44-14.666-1.59.664-6.1c-4.832 4.82-10.232 6.89-16.175 6.26-11.137-1.25-18.252-7.7-21.284-19.4-1.8-7.29-2.018-17.34-.616-30.16 3.43-31.41 14.556-46.13 33.497-44.06 15.76 1.77 23.62 12.43 23.66 32.08l-15.49-1.71c1.14-10.5-1.937-16.12-9.137-16.9-9.313-1.04-15.256 10.26-17.817 33.88-2.295 21.37.99 32.55 9.978 33.53 6.583.73 11.802-4.19 15.676-14.7l.57-4.93-9.651-1.06 1.559-14.25 24.302 2.67-5.07 46.44Zm124.1-27.93c1.26 19.16-7 29.32-24.65 30.45-9.35.58-16.31-1.57-20.8-6.55-3.9-4.32-6.16-11.18-6.72-20.53l-4.07-63.52 14.99-1.01 3.85 61.33c.75 10.85 4.69 16.06 11.82 15.61 7.68-.52 11.15-6.2 10.47-17.06l-3.86-61.26 14.98-.99 3.99 63.53Zm87.03 14.32-18.21 3.13-29.71-53.81 9.7 57.24-14.76 2.5-15.14-89.18 18.97-3.19 28.59 51.67-9.32-55 14.84-2.54 15.04 89.18Zm70.41-17.84-14.29 3.74-22.75-87.47 14.25-3.75 22.79 87.48Zm68.61-120.41 11.45 92.3-13.81 5.25-51.58-77.1 14.69-5.6 33.04 51.28-8.55-60.55 14.76-5.58Zm110.09 41.17-46.29 26.47-44.52-78.57 44.6-25.51 7.14 12.58-31.93 18.2 11.04 19.49 29.75-16.99 7.19 12.76-29.72 17.01 12.09 21.33 33.59-19.24 7.06 12.47Zm23.42-88.94c-5.8-8.47-11.85-10.54-18.02-6.23l-10.98 7.65 18.18 26.5 9.29-6.45c3.52-2.45 5.32-5.81 5.23-10.11.03-3.87-1.18-7.66-3.7-11.36Zm49.12 40.09-14.53 10.05-31.49-16.09-6.55 4.55 17.66 25.71-11.67 8.16-51.19-74.41 19.74-13.74c16.35-11.31 30.01-9.01 41.01 6.99 8.24 11.94 8.73 22.9 1.68 32.88l35.34 15.9Zm23.01-105.78-13.39 11.1c-5.37-6.54-10.28-8.05-14.5-4.51-4.7 3.94-4.7 8.8.08 14.61 2.32 2.71 5.64 4.4 9.94 4.99 1.4.15 5.34.1 11.8-.13 9.88-.11 15.84-.13 17.91-.01 6.94.9 12.2 3.46 15.66 7.68 4.86 5.9 6.82 12.05 5.74 18.52-1.04 6.48-4.81 12.43-11.23 17.75-7.26 6.06-14.61 8.33-22.01 6.88-6.57-1.19-12.71-5.23-18.35-12.07l13.37-11.15c6.72 8.24 12.76 10.07 18.16 5.62 5.02-4.17 5.53-8.68 1.51-13.55-2.41-2.92-7.35-4.23-14.86-3.95-12.9.22-19.9.32-20.96.28-8.46-.94-14.87-4.13-19.35-9.49-4.46-5.48-6.43-11.72-5.79-18.62.58-6.81 3.83-12.76 9.79-17.73 6.18-5.15 12.74-7.14 19.71-6.04 6.12.92 11.71 4.24 16.77 9.82Zm85.99 2.68-9.74 11.11-67.61-59.72 9.78-11.15 67.57 59.76Zm4.1-129.43-12.13 16.57 61.33 45.31-8.77 11.94-61.26-45.33-12.26 16.69-11.14-8.28 33.02-45.16 11.21 8.26Zm29.31-76.6 32.85 46.37 31.24 19.12-7.6 12.53-31.23-19.12-56.06-8.04 9.01-14.92 36.69 8.01-23.9-29.07 9-14.88Zm-9.09-311.648-59.5-2.332a9.563 9.563 0 0 1-2.05-.315l-.04.048-51.32-10.028c-.62-.098-1.22-.353-1.86-.571v.036l-44-15.504c-.7-.231-1.3-.546-1.91-.911v.061l-38.81-21.005c-.56-.303-1.04-.667-1.53-1.019v.048l-33.28-24.295-1.2-.983-.06.024-29.92-27.585-.82-.801v.024l-55.86-60.658-.09-.17-53.41-58.861-61.11-51.467-34.91-20.021-40.5-16.998-45.39-10.588-55.59-4.431-53.13 4.164-47.872 10.454-40.31 16.707-35.539 20.118-31.734 22.862-28.701 27.743-54.057 59.019-.411.388-54.238 59.894-1.148 1.092-31.359 27.464-1.136.898-33.4 24.016c-.508.376-.967.631-1.522.947l-38.921 20.81c-.689.364-1.305.595-2.018.814l.036.097-44.707 15.286c-.604.23-1.172.328-1.848.437l.06.073-50.505 9.774c-.677.169-1.402.157-2.126.169v.037l-58.744 2.052-.906-27.185 57.463-2.015 48.742-9.434 43.053-14.752 36.94-19.729 32.156-23.154 30.417-26.674 53.646-59.104.568-.705 54.335-59.298.58-.595 29.535-28.532c.471-.425.942-.85 1.486-1.202l32.881-23.676a12.03 12.03 0 0 1 1.824-1.274l36.106-20.471a12.178 12.178 0 0 1 2.163-1.105l41.095-17.082c1.087-.559 2.15-.899 3.382-1.166L1007 451.358a8.917 8.917 0 0 1 2-.255l54.39-4.225c.96-.122 1.91-.122 2.86-.061l57.17 4.48.33.085.12-.024c.68.048 1.34.158 1.98.328l46.47 10.842c1.16.145 2.25.498 3.41.947l41.36 17.41c.77.268 1.53.632 2.23 1.069l36.47 20.895c.74.425 1.47.923 2.12 1.481l61.91 52.172.27.23.05.037c.72.522 1.36 1.141 2.01 1.845l53.14 58.57.84.899 55.42 60.172 29.25 26.942 31.69 23.141 36.98 19.985 42.04 14.848 49.62 9.689 58.28 2.307-1 27.185Zm-2.24 43.592 1 27.209-58.37 2.113-49.63 9.543-42 14.715-37.1 19.888-31.81 23.068-29.27 26.784-55.64 60.066-.82.87-53.3 58.39c-.68.73-1.29 1.33-2.01 1.86l-.07.02-.23.24-62.14 52.01c-.63.53-1.38 1.03-2.11 1.49l-36.47 20.74c-.73.49-1.51.82-2.25 1.08l-41.45 17.27c-1.12.48-2.19.79-3.37.99l-46.5 10.66c-.66.17-1.32.29-1.98.32l-.14-.04-.34.08-57.22 4.34c-.94.03-1.87.02-2.81-.03l-54.36-4.42c-.73-.06-1.34-.14-2.01-.25l-49.548-11c-1.244-.27-2.343-.67-3.358-1.23l-41.132-17.22c-.773-.3-1.498-.61-2.15-1.09l-36.01-20.57c-.688-.37-1.244-.78-1.86-1.26l-32.785-23.81c-.604-.36-1.014-.74-1.449-1.2l-29.511-28.58-.58-.61-54.093-59.47-.592-.7-53.465-59.274-30.405-26.747-32.036-23.251-36.891-19.851-43.041-14.897-48.609-9.531-57.548-2.21 1.003-27.184 58.707 2.221-.012.025c.725.048 1.45.024 2.114.206l50.506 9.907-.073.073c.725.11 1.281.219 1.861.45l44.659 15.407-.012.085c.724.218 1.377.461 2.041.813l38.837 20.932c.543.328.966.607 1.534.947l33.28 24.137 1.196.911 31.19 27.5v.036l1.196 1.093 54.032 60.042.423.45 53.888 59.12 28.593 27.87 31.71 22.93 35.538 20.24 40.19 16.86 47.832 10.57 53.08 4.29 55.61-4.22 45.44-10.46 40.53-16.92 35.03-19.86 61.26-51.34 53.58-58.67.12-.18 56-60.491-.01.036.8-.826 29.97-27.475.1.036 1.18-.971 33.39-24.234v.06c.52-.315.98-.74 1.56-1.032l38.88-20.822v.073a6.1 6.1 0 0 1 1.93-.947l43.97-15.383v.036c.68-.231 1.25-.473 1.91-.558l51.31-9.908.07.037c.65-.17 1.3-.231 2.05-.304l59.47-2.113ZM878.897 1368.03l-22.143-8.03 22.493-62.03c-.52.11-1.051.2-1.595.31-6.354 1.12-10.63 1.57-14.363 1.5l-8.54-.17 7.912-22.05 3.878-.38c6.475-.59 12.345-1.97 17.504-4.03 5.097-2.06 8.987-4.38 11.572-6.9l2.79-2.69 16.224 5.97-35.732 98.5Zm121.673-55.71c-2.661-.1-5.161.86-7.674 2.89-3.128 2.46-4.989 6.06-5.834 11.09-.616 4.18.024 7.52 2.041 10.46 1.969 2.77 4.518 4.36 7.985 4.93 2.982.46 6.132-.16 8.792-2.25 2.62-2.11 4.28-5.51 5.04-10.35.75-4.86.18-8.78-1.7-11.65-1.91-2.9-4.16-4.44-7.36-4.99-.38-.06-.82-.12-1.29-.13Zm-18.534 48.32.061 2.91c.048 3.79.749 6.5 2.017 8.08.749.91 2.163 2.22 5.617 2.83 1.704.24 4.192.14 5.956-.61a13.791 13.791 0 0 0 5.133-3.67c1.43-1.59 2.92-4.25 4.52-7.9-4.6 1.48-9.448 1.8-14.425 1.07-3.201-.54-6.161-1.42-8.879-2.71Zm9.157 35.6a41.803 41.803 0 0 1-5.17-.51c-8.649-1.4-15.426-5.05-20.198-10.84-4.771-5.67-7.115-13.12-6.885-22.11l.169-6.41 17.624 1.17c-2.899-2.13-5.472-4.8-7.694-8-5.255-7.72-7.079-16.93-5.412-27.44 1.703-10.77 6.39-19.17 14-24.93 7.707-5.78 16.489-7.96 26.343-6.4 7.12 1.2 13.35 4.21 18.57 8.93 5.25 4.75 8.89 10.95 10.81 18.43 1.84 7.2 1.8 16.6-.12 28.75-2 12.47-4.92 22.02-8.88 29.17-4.09 7.5-9.54 13.09-16.21 16.53-5.21 2.65-10.871 3.88-16.947 3.66Zm124.097-79.61c-.48-.01-.96 0-1.43.04-2.67.22-4.61 1.15-6.11 2.94-1.6 1.78-2.19 3.53-2.01 5.78.26 2.58 1.22 4.6 2.87 5.92 1.92 1.57 4.07 2.09 6.81 1.86 3.61-.35 5.23-1.8 6.12-2.88 1.5-1.73 2.06-3.54 1.85-5.85-.24-2.52-1.17-4.37-2.96-5.87-1.48-1.24-3.13-1.86-5.14-1.94Zm3.67 38.03c-.65-.02-1.31-.01-2.01.05-3.57.32-6.3 1.69-8.45 4.24-2.12 2.52-2.95 5.42-2.67 9.19.19 2.15.94 4.26 2.22 6.3 1.14 1.83 2.67 3.2 4.74 4.16 1.94.82 4.32 1.21 6.8 1.01 3.72-.36 6.52-1.73 8.62-4.25 2.12-2.51 3-5.47 2.67-9.12-.35-3.75-1.77-6.61-4.34-8.75-2.18-1.81-4.62-2.73-7.58-2.83Zm-3.47 46.65c-8.14-.29-15.26-2.84-21.13-7.66-7.28-5.87-11.44-13.81-12.31-23.58-.61-7.25.78-13.72 4.16-19.22a26.56 26.56 0 0 1 4.63-5.6c-1.09-.92-2.08-1.9-2.99-2.99-3.28-3.83-5.24-8.74-5.75-14.46-.7-8.41 1.73-15.88 7.2-22.14 5.49-6.14 13.04-9.67 22.51-10.53 10-.82 17.91 1.42 24.31 6.62 6.59 5.27 10.31 12.23 11.04 20.6.52 5.47-.59 10.71-3.2 15.13-.7 1.23-1.54 2.42-2.52 3.55 2.26 1.48 4.28 3.24 5.99 5.3 4.11 4.76 6.52 10.75 7.1 17.74.87 9.47-1.81 17.92-8.04 25.06-6.02 7.02-14.52 11.07-25.21 12.01-2 .18-3.93.23-5.79.17Zm112.71-19.76-1.63-6.03c-1.97-7.43-3.08-16.54-3.37-27.88-.16-11.17.95-22.3 3.26-33.23 1.26-5.95 2.78-11.63 4.59-16.96l-37.04 10.68-6.36-22.31 68.9-19.89 4.72 16.78-1.11 2.15c-3.61 7-6.74 16.19-9.36 27.32-2.51 10.93-3.82 22.02-3.82 32.98-.04 7.6.84 15.75 2.65 24.27l1.19 5.65-22.62 6.47Zm565.2-222.68-7.88-4.33c55-100.97 84.24-215.407 84.53-330.907.21-105.387-22.59-206.767-67.76-301.348l8.11-3.91c45.74 95.796 68.84 198.511 68.62 305.282-.26 117.006-29.9 232.903-85.62 335.213Zm-1458.197-3.51c-55.253-102.6-84.329-218.673-84.039-335.667.218-106.698 23.797-209.305 70.063-304.954l8.069 3.934c-45.673 94.423-68.927 195.706-69.144 301.044-.29 115.488 28.399 230.063 82.939 331.353l-7.888 4.29Z"/>
  <path fill="#F39700" d="M954.73 1036.08a3.465 3.465 0 0 1-1.607-.46l-80.97-46.393a3.485 3.485 0 0 1-1.752-3.071l.447-184.245a3.532 3.532 0 0 1 2.017-3.157l81.177-38.269a3.496 3.496 0 0 1 3.346.242 3.49 3.49 0 0 1 1.618 2.939l-.133 38.67c.013 1.384-.809 2.634-2.077 3.205l-41.132 17.994-.278 127.168 41.349 24.44a3.55 3.55 0 0 1 1.704 3.048l-.097 54.389a3.63 3.63 0 0 1-1.752 3.04c-.592.32-1.232.49-1.86.46Zm107.32 57.6c-.55-.02-1.08-.16-1.56-.42l-77.179-42.53a3.603 3.603 0 0 1-1.812-3.1l.737-283.391c0-1.943 1.558-3.521 3.491-3.509l154.533-.109c.87-.037 1.82.376 2.5 1.02.64.68 1.02 1.578 1.01 2.513l-.26 98.26c0 1.955-1.56 3.521-3.49 3.521l-39.72-.061c-.9-.024-1.81-.364-2.47-1.032-.66-.668-.99-1.554-1.01-2.489l.13-60.512-68.51-.377-.54 215.606 34.53 20.73 34.35-16.31.26-105.011-34.91-.995h-.02c-1.88-.073-3.36-1.627-3.37-3.534l.07-27.245c-.01-1.93 1.56-3.484 3.48-3.496l76.23-.292c.91.073 1.82.389 2.48 1.032a3.555 3.555 0 0 1 1.04 2.477l-.35 163.564a3.543 3.543 0 0 1-1.83 3.08l-76.01 42.19c-.57.3-1.21.45-1.8.42Zm107.81-51.29c-.58-.03-1.14-.16-1.64-.47-1.07-.61-1.73-1.78-1.74-3.03l.62-273.593c0-1.202.62-2.307 1.65-2.951a3.417 3.417 0 0 1 3.34-.182l34.77 16.901a3.461 3.461 0 0 1 1.94 3.169l-.38 185.155 14.59-7.661.4-167.526c0-1.227.61-2.344 1.65-2.975 1.02-.655 2.31-.704 3.41-.17l31.88 16.112c1.18.57 1.92 1.784 1.89 3.132l-.47 178.793c0 1.263-.65 2.392-1.72 3.011l-88.34 51.805c-.55.35-1.22.5-1.85.48Z"/>
  <path fill="#F39700" d="M841.806 854.118c-.193-.012-.41-.049-.567-.146l-137.468-69.91c-.484-.218-.773-.704-.773-1.25 0-.51.302-.984.761-1.214l360.191-175.066a1.25 1.25 0 0 1 1.19 0l359.31 176.765c.48.207.79.692.79 1.215 0 .534-.29 1.032-.76 1.262l-135.61 68.672c-.46.23-.97.206-1.38-.049-.41-.255-.64-.704-.65-1.19l.42-46.671c-.01-.51.27-.971.69-1.202l37.27-21.017-260.82-128.249-261.333 127.011 39.5 21.466c.472.243.737.716.725 1.226l-.084 46.951c.024.509-.23.934-.641 1.214a1.417 1.417 0 0 1-.761.182Z"/>
</svg>
