<svg xmlns="http://www.w3.org/2000/svg" width="1534" height="1715" fill="none" viewBox="0 0 1534 1715">
  <path fill="#015AAB" d="M776.333.6c-1.733.667-5.066 2.533-7.333 4.267-2.133 1.6-6.667 4.266-10 6-3.333 1.733-9.467 5.466-13.867 8.266-4.266 2.8-8.133 5.2-8.666 5.2-.534 0-4 2.134-7.6 4.667-3.6 2.533-6.934 4.667-7.467 4.667-1.067 0-14.667 8-15.733 9.333-.4.4-2.134 1.467-4 2.4-1.867.933-5.467 2.933-8 4.4-2.534 1.6-9.734 5.867-16 9.6-6.267 3.733-11.467 7.2-11.734 7.867-.266.533-1.066 1.066-1.866 1.066-.667 0-9.2 4.8-18.934 10.534-9.6 5.733-19.333 11.6-21.733 12.933-2.267 1.467-8.4 5.067-13.6 8.133-5.067 3.2-9.867 5.734-10.533 5.734-.8 0-1.6.533-1.867 1.066-.4 1.2-16.267 10.934-17.6 10.934-.533 0-2.933 1.466-5.2 3.2-4.4 3.2-13.733 8.8-19.6 11.733-1.867.933-3.733 2.267-4.267 3.067-.533.666-1.066 63.6-1.066 139.6v138.266l3.733 2.4c6.4 4.267 8.8 5.734 14.533 8.534 3.067 1.466 6.267 3.6 7.2 4.666.8 1.067 2.267 1.867 3.2 1.867.8 0 2.934 1.2 4.667 2.667 1.733 1.466 3.6 2.666 4.133 2.666 1.6 0 15.067 8.267 15.6 9.6.267.534 1.2 1.067 2.134 1.067.8 0 4.533 2 8.266 4.267 3.734 2.4 7.867 5.066 9.334 5.866 1.333.8 14.4 8.534 28.933 17.334 14.533 8.666 28.933 17.333 32 19.066 3.067 1.734 8.133 4.934 11.333 6.934 3.2 2.133 6 3.866 6.4 3.866.267 0 10.534 6 22.534 13.334C735.8 525 745.933 531 746.2 531c.267 0 3.733 2.133 7.6 4.667 4 2.533 7.6 4.666 8.133 4.666.667 0 4.667 2.4 8.934 5.334C775.133 548.6 779 551 779.4 551c.4 0 8.133-4.533 17.2-10 9.067-5.6 17.333-10.667 18.4-11.333 8.133-4.8 79.867-47.467 82-48.667 1.467-.8 5.333-3.067 8.533-5.2 3.2-2 8.4-5.067 11.334-6.667 3.066-1.6 8.933-5.2 13.2-8 4.133-2.666 8.666-5.333 10-5.733 1.2-.533 4.666-2.533 7.466-4.667 2.8-2 5.734-3.733 6.4-3.733.667 0 5.2-2.667 10.267-6 5.067-3.333 9.467-6 10-6 .533 0 4-2.133 7.867-4.8 3.733-2.667 8.666-5.6 10.933-6.667 7.07-3.333 13.33-7.333 15.73-10.133 2.14-2.533 2.27-11.067 2.27-139.067v-136.4l-4.93-3.866c-2.8-2.267-6.27-4.4-7.603-4.934-1.467-.4-6.534-3.6-11.467-6.8-4.933-3.333-9.333-6-9.867-6-1.066 0-14.533-8.266-16.533-10.266-.933-.934-2.4-1.734-3.2-1.734-.8 0-4.933-2.4-9.2-5.333-4.267-2.933-8.267-5.333-8.933-5.333-.534 0-5.2-2.667-10.134-6-5.066-3.334-9.466-6-9.733-6-.4 0-14.667-8.4-31.733-18.667-17.067-10.267-31.734-18.667-32.534-18.667-.8 0-1.466-.533-1.466-1.066 0-.534-4-3.334-8.934-6-5.066-2.8-13.2-7.734-18.4-10.934-5.066-3.333-10-6-10.933-6-.8 0-1.733-.533-2-1.066-.533-1.2-14-9.6-15.467-9.6-.666 0-3.466-1.734-6.4-4C784.2.333 780.333-.867 776.333.6Zm18.534 125.2c6.4.8 14.266 2.267 17.733 3.333 3.467 1.067 6.933 1.867 7.733 1.867 3.067 0 27.334 11.733 37.734 18.133 9.2 5.867 30.133 26.4 37.733 37.334 7.733 10.933 17.067 30 20.533 41.866 1.6 5.467 3.6 11.467 4.4 13.334.8 1.866 1.734 14.666 2 28.933.534 26.533-.533 34.133-7.2 53.733-10.8 31.067-34.533 61.734-59.2 76.667-4.8 2.8-9.466 6-10.266 6.8-.934.933-4.534 2.667-8 3.867-3.6 1.2-7.6 2.8-9.067 3.466-17.333 7.334-23.2 8.267-49.333 8.267-27.867 0-34.8-1.467-60-13.067-37.734-17.466-68.667-55.6-78.934-97.333-1.066-4.4-2.533-11.067-3.2-14.667-1.6-8.533-1.733-39.466 0-47.333.667-3.333 2-9.6 2.8-14 .934-4.4 2.267-8.533 2.8-9.2.667-.8 1.2-2.4 1.2-3.733 0-2.267 1.2-4.8 9.6-21.734 3.867-7.733 16.267-25.2 23.6-33.2 6-6.666 35.467-28.8 38.134-28.8.8 0 6.933-2.666 17.6-7.466 2.266-1.067 5.333-1.867 6.666-1.867 1.467 0 3.067-.4 3.6-1.067 1.2-1.2 26-5.2 34-5.466 3.334 0 11.067.533 17.334 1.333Z"/>
  <path fill="#015AAB" d="M493.267 131.267C487.8 136.6 480.2 144.6 476.333 149c-3.733 4.4-8 9.2-9.2 10.667-1.333 1.467-5.733 7.2-10 12.667-4.133 5.466-8.4 11.2-9.6 12.666-5.066 6.4-21.866 32.534-21.866 33.867 0 .8-.534 1.467-1.334 1.467-.666 0-1.333.8-1.333 1.733s-1.6 4-3.6 6.933c-2 2.8-5.733 9.467-8.4 14.667-2.667 5.066-5.467 10.533-6.267 12-.8 1.466-2.8 6-4.4 10-1.6 4-4.266 10.266-6 14-1.6 3.6-3.466 8.133-3.866 10-.534 1.866-1.467 4.533-2.134 6-2.533 5.733-9.2 26.933-10.133 31.733-.4 2.667-1.333 5.333-2 5.733-.667.4-1.2 2.4-1.2 4.534 0 2.133-.667 5.466-1.467 7.6-1.866 4.933-4.8 20.933-7.6 42.4-4 31.466-2.933 90.4 2.534 125.333 1.866 12.267 6.533 34.133 7.866 36.667.534 1.2 1.467 4.8 2 8 .8 5.733 3.6 14.8 6.134 20.666.666 1.467 3.066 8.4 5.333 15.334 2.267 6.933 4.933 14.133 6 16 .933 1.866 2.667 5.733 3.867 8.666 1.2 2.934 3.066 7.067 4.266 9.334 1.2 2.133 4.934 9.333 8.4 16 8.534 16.266 11.2 20.666 12.4 20.666.534 0 .934.8.934 1.734 0 1.333 9.2 15.2 14.4 21.6.533.666 2.533 3.466 4.266 6 1.867 2.533 3.734 4.933 4.134 5.333.4.4 5.2 6 10.8 12.667 14.666 17.333 36 37.466 56.266 52.8 8.667 6.533 26 18.533 26.8 18.533.267 0 3.6 2.133 7.467 4.667 4 2.533 7.733 4.666 8.4 4.666.667 0 3.067 1.467 5.333 3.2 2.267 1.734 5.6 3.6 7.467 4.134 1.867.533 6.667 2.8 10.667 5.066 12.8 7.067 14 7.6 15.466 7.6.667 0 4.534 1.467 8.267 3.334 3.867 1.866 7.333 3.333 7.867 3.333.666.133 3.466 1.2 6.4 2.667 2.933 1.466 6.133 2.533 7.066 2.666.934 0 2.667.534 4 1.2 2.667 1.334 31.467 10.4 36.267 11.334 1.867.266 7.2 1.6 12 2.8 27.867 6.933 75.333 14.133 78.933 11.866.534-.4 1.067-58.933 1.067-130V592.2l-3.467-3.2c-1.866-1.733-4.8-3.6-6.4-4.133-1.466-.534-4.533-2.134-6.8-3.734-4.666-3.333-6.4-4.4-14.8-9.2-3.6-2-8.266-4.8-10.533-6.266-2.133-1.467-5.467-3.334-7.333-4-1.734-.8-6.667-3.867-10.934-6.8-4.266-2.8-8-5.2-8.4-5.2-.4 0-7.333-4-15.466-9.067a1011.31 1011.31 0 0 0-18.267-10.8c-2-1.067-3.733-2.4-4-3.067-.267-.533-1.067-1.066-1.733-1.066-.667 0-8.4-4.4-17.2-9.734-8.934-5.2-18.8-11.066-22-12.933-3.334-1.867-22.134-13.067-41.867-25.067-19.867-11.866-36.267-21.6-36.8-21.6-.4 0-3.2-1.866-6.267-4-2.933-2.266-6-4-6.666-4-.667 0-3.2-1.466-5.6-3.333-2.4-1.867-5.067-3.333-5.867-3.333-.8 0-2.133-1.2-2.8-2.534-.933-1.733-1.467-56-1.467-160-.133-86.666-.266-157.466-.666-157.466-.267 0-4.934 4.4-10.4 9.6Zm564.403-5.333V280.6c0 110.267-.4 153.733-1.47 156.133-.8 1.867-2.8 4-4.4 4.8-4.53 2.267-16.53 9.467-32.53 19.067-8 5.067-15.07 9.067-15.6 9.067-.54 0-4.537 2.4-8.804 5.333-4.266 2.933-8.266 5.333-8.933 5.333-.667 0-5.067 2.667-10 6-4.933 3.334-9.467 6-10 6-.533 0-4 2-7.733 4.267-3.6 2.4-9.334 5.867-12.534 7.6-3.333 1.733-8.4 4.8-11.333 6.8s-8.667 5.467-12.667 7.867c-4 2.266-8.266 4.8-9.333 5.466-1.067.667-7.733 4.534-14.667 8.667-6.933 4.133-13.6 8-14.666 8.667-7.867 4.933-30.4 18.133-32 18.8-1.067.533-6.133 3.6-11.333 7.066-5.067 3.334-9.734 6.134-10.4 6.134-.534 0-4.534 2.4-8.8 5.333-4.267 2.933-8.267 5.333-8.934 5.333-.533 0-3.066 1.334-5.466 2.934l-4.4 3.066v262.134l11.733-.8c6.4-.534 12.533-1.2 13.6-1.6 1.067-.4 7.733-1.467 14.667-2.534 15.466-2.133 29.999-5.2 35.066-7.066 2.133-.8 5.467-1.467 7.6-1.467s4.133-.533 4.533-1.2c.4-.533 3.334-1.467 6.4-2 5.867-.933 27.867-7.867 32-10.133 1.334-.8 3.334-1.334 4.534-1.334 1.2 0 5.066-1.333 8.4-2.8 3.333-1.6 7.333-3.333 8.8-4 1.466-.533 5.466-2.266 8.933-3.733 3.467-1.6 6.933-2.8 7.733-2.8.8 0 3.6-1.467 6.4-3.2 5.867-3.6 16.8-8.8 18.8-8.8.8 0 1.467-.533 1.467-1.2 0-.533 3.067-2.533 6.667-4.267 3.73-1.733 6.67-3.6 6.67-4.133 0-.667.66-1.067 1.46-1.067 1.47 0 27.6-16.8 29.2-18.666.4-.4 3.07-2.534 6-4.667 10.67-7.733 22.94-18.8 38.67-34.667 19.47-19.6 20.67-20.933 31.87-36 4.8-6.666 10.26-13.733 11.86-15.866 7.47-9.867 35.47-61.334 35.6-65.6.14-.667 1.2-3.6 2.67-6.534 1.47-2.933 2.53-6.266 2.67-7.466 0-1.2.4-2.534.93-2.934.4-.533 2.4-5.733 4.4-11.6 2-5.866 4-11.066 4.4-11.6.53-.4.93-1.866.93-3.2 0-1.2.8-5.2 1.87-8.666 5.6-19.067 6.8-24.934 10.93-52.534 6.14-41.2 6.14-93.333 0-135.333-2.93-19.6-7.73-42.533-10.13-47.333-.53-1.2-1.47-4.134-1.87-6.667-1.06-5.2-4.26-14.533-6.93-20.933-1.07-2.267-1.87-5.067-1.87-6.134 0-1.2-.53-2.4-1.2-2.8-.53-.4-1.46-2.666-2-5.066-.4-2.4-1.6-6.267-2.66-8.4-1.07-2.267-3.47-7.6-5.47-12-11.07-24.8-34.8-66-46.13-79.867-.67-.8-6.4-8.133-12.67-16.133-11.33-14.533-37.6-43.333-39.47-43.333-.66 0-1.06.8-1.06 1.6Z"/>
  <path fill="#000" d="M214.6 926.2c-2.8 3.333-5.867 6.133-6.933 6.133-1.067 0-2.534 1.2-3.467 2.8-1.2 2.4-.933 3.334 2.133 6.534 2 2.133 5.467 4.533 7.6 5.466 5.467 2.267 7.734 7.467 7.734 18.134 0 8.533 1.466 20 3.466 26.8 1.2 4-7.333 12.263-12.666 12.263-2.134 0-5.467.54-7.6 1.34-4.267 1.46-20.8 4.8-33.2 6.66-4.4.67-10.4 1.87-13.334 2.54-2.933.8-10 1.46-15.733 1.46-7.733 0-11.733.67-15.6 2.67-7.067 3.6-7.067 7.87-.133 15.6 4.933 5.47 5.466 5.73 12.933 5.6 7.467 0 13.067-.67 37.2-4 14-2 36.8-1.6 39.067.67 1.466 1.46 1.2 2.26-2 4.4-2 1.46-5.867 3.06-8.4 3.33-5.734.8-18 3.87-38.934 9.73-17.466 4.8-33.333 6.27-43.2 4-3.733-.8-4.4-.4-7.066 3.74-2.267 3.73-2.8 6.66-2.8 15.73 0 10.53.266 11.6 3.733 15.47 2.133 2.26 5.733 4.53 8 5.06 5.6 1.2 15.6-2.26 24.267-8.13 11.2-7.73 11.333-7.6 11.466 15.07 0 15.2.534 21.06 2.267 25.6 1.2 3.2 2.267 7.46 2.267 9.6 0 8 9.066 22.26 16 25.2 4.666 2 9.333.53 17.866-5.6 5.2-3.74 5.334-3.74 26.534-3.74 15.866 0 23.333-.53 28.8-2.13 15.2-4.53 19.066-6.53 24-12.4 7.2-8.67 12-13.47 20.533-20.13 16-12.67 14.667-10.94 14.667-19.87-.134-9.87-2.4-13.87-10.134-17.47-15.6-7.2-30.266-10-40.933-7.86-4 .8-7.867 2-8.667 2.53-.666.53-4.266 1.33-8 1.6-3.6.4-9.333 1.33-12.666 2.13-3.334.8-10.4 2.54-15.867 3.74-5.467 1.33-13.067 4-17.067 6.13-3.866 2-8.133 3.73-9.466 3.73-1.467 0-5.467-3.06-8.934-6.8-5.866-6.26-6.133-6.8-4.266-9.6 1.2-1.86 3.866-3.2 7.066-3.73 2.934-.53 8.4-1.6 12.4-2.4 3.867-.8 12-1.47 18-1.47s12.934-.66 15.467-1.33c4.533-1.33 10.533-2.53 28-5.33 23.2-3.74 26.4-3.87 33.6-2.4 6 1.2 8.8 1.2 16.133-.67 4.8-1.2 10.267-2.27 12-2.27 4.8 0 8.534-5.06 9.467-12.8 1.2-9.46-.533-13.2-7.467-16.26-10.666-4.8-29.2-4.8-56.8-.14-10.133 1.74-13.066.94-11.466-3.2 1.066-3.06 10.533-7.6 15.6-7.6 2.4 0 6.4-.66 8.933-1.46 2.533-.8 9.467-2.27 15.333-3.2 21.867-3.74 23.334-4.54 23.334-12.67 0-5.733-3.067-8.8-14-14-6.667-3.2-10.267-4-21.6-4.667-7.467-.4-13.867-1.066-14.267-1.466-.533-.4-.267-2.4.533-4.4.667-2 1.334-5.334 1.334-7.467 0-4.133 3.333-12.4 6.4-16.267 2.8-3.333 2.666-16-.267-20.266-5.333-8.267-18.667-12.667-42.133-13.734l-14-.533-5.067 6Zm39.067 184.67c0 3.33-5.067 9.46-7.734 9.46-3.333 0-22 4.8-24.933 6.4-1.467.67-5.333 2.14-8.4 3.07-6.667 2-10 .67-10.667-4-.666-4 1.6-6.27 7.067-7.2 2.667-.4 7.2-2 10.4-3.33 5.733-2.67 22.267-6.4 30-6.8 3.333-.14 4.267.4 4.267 2.4ZM876.6 967.4c-4.933 5.2-3.867 10 5.333 24.533 2 3.067 4.134 5.867 4.934 6.267 1.333.933 5.466 9.33 8.133 16.8 4.8 13.2 7.467 76.8 5.333 127.2-2.533 62.13-3.333 76.53-4 77.07-2.933 2.13-11.466 5.06-14.4 5.06-2.133 0-4.933.94-6.4 2-1.333 1.07-3.866 2-5.6 2-1.6 0-5.066.8-7.6 1.87-2.533 1.07-7.333 2.4-10.533 2.8-5.867.93-6.133.8-7.6-2.8-2.533-6.8 3.333-17.73 9.733-17.87 1.2 0 2.8-1.6 3.6-3.73.8-2 2.934-6.27 4.8-9.47 4.534-8 4.4-14.4-.533-20.93-7.867-10.8-7.2-10.53-31.333-10.27-31.6.27-40.667 3.74-40.8 15.47 0 3.73 3.333 8.27 16.266 22.8 4.534 5.2 5.734 5.73 15.334 7.33 14.266 2.27 16.8 3.47 16 7.2-.934 4.14-3.734 11.87-5.067 14.27-.667 1.07-1.733 3.2-2.4 4.67-2 4.53-7.2 8.26-12.667 9.2-6.4 1.2-11.466 4.4-11.466 7.33 0 1.2-1.067 3.73-2.267 5.47-2 2.8-2.4 6.4-2.4 23.6v20.4l3.733 3.6c2.8 2.93 4.934 3.73 9.334 3.73 7.333 0 17.866-6.53 21.6-13.47 1.866-3.6 4.4-5.6 9.733-8 4-1.73 8.133-3.2 9.067-3.2.933 0 3.733-.8 6.133-1.86 2.4-1.07 5.333-2.27 6.4-2.67 1.067-.53 3.867-2 6-3.33 8-5.2 14.133-8.14 16.8-8.14 5.067 0 5.467 4.67 4.267 57.34-.534 27.46-.667 73.33-.267 101.73.933 55.73 2.133 66.93 7.2 68.93 3.333 1.34 9.067 8.94 8.267 11.07-.267.93-2.267 1.6-4.4 1.6H901v9.07c0 8.66.267 9.33 4.4 13.06 3.6 3.34 5.467 3.87 11.6 3.87 6.667 0 7.467-.27 9.333-4 3.467-6.67 2-18.53-2.4-18.67-.933-.13-3.333-1.6-5.6-3.33-3.733-3.07-3.866-3.33-1.066-3.33 8.8 0 13.333-6 11.866-15.6-.666-3.47-.933-7.07-.933-7.74 1.6-13.6 3.067-33.86 2.933-40.4 0-10.8 0-20.66.134-32.66 0-5.2 0-12.94-.134-16.94-.4-10.66 3.467-104.93 4.934-120.53.8-8.13 1.866-13.47 2.933-14.13 2.8-1.74 42.133-3.07 58.667-2 26.933 1.73 26.663 1.73 29.603-2.14 2.53-3.33 2.53-3.73.4-8-1.34-2.53-3.87-6.4-5.87-8.53-2-2.27-4.4-6.53-5.2-9.6-2.53-8.8-11.47-15.2-28.933-20.93-4.934-1.6-11.867-2.14-27.067-2.14-19.733 0-20.4-.13-21.733-3.06-.934-2-.8-9.87.133-24.94.933-12.13 2-28.26 2.4-36 .533-7.73 1.467-14.93 2.133-16 .8-1.06 1.734-10 2.134-20 .933-16.53 3.466-33.06 6.666-43.46.8-2.27 1.334-9.87 1.334-16.94 0-12.66 0-12.93 4-15.73 5.866-4.4 10.666-12.4 10.666-17.87 0-7.73-6-18.663-12.8-23.597-3.2-2.266-5.866-4.666-5.866-5.333 0-.533-.534-1.067-1.2-1.067-.667 0-4.667-2.4-8.934-5.2-4.4-2.8-11.466-7.2-15.866-9.6-7.867-4.4-8.4-4.533-26.134-4.8-17.333-.4-18.266-.266-20.933 2.667Zm409.6 11.6c-7.33 4.8-9.07 10.8-8.13 30.27.4 9.33 1.33 23.06 2.13 30.4.8 7.33 1.73 23.6 2 36 .4 12.53 1.33 24.4 2 26.53 2 5.07 1.87 41.47-.13 45.2-.8 1.6-2 5.33-2.54 8.27-.53 2.93-1.6 7.06-2.4 9.33-.8 2.13-1.73 5.73-2.13 7.73-.8 3.6-10.53 15.6-12.8 15.6-1.07 0-17.6 7.74-22.53 10.54-6.27 3.46-10.54 5.46-12 5.46-.94 0-3.47.8-5.74 1.87-7.73 3.33-18.53 6.13-23.46 6.13-6.67 0-28.67 3.74-36.14 6-16.53 5.34-18.93 6-21.46 6-1.47 0-4.27.8-6.27 1.87-2 .93-5.6 2.13-8 2.53-6.53 1.34-18.67 7.47-22.4 11.34-6 6.4-11.73 20.13-11.33 26.93.66 9.6.53 17.47-.54 25.73-.8 6.14-.4 9.47 1.47 15.2 3.07 9.07 7.87 12.4 17.73 12.4 7.2 0 10-1.2 23.34-9.86 4.4-2.8 8.93-5.47 10-5.87 1.2-.4 7.2-4.13 13.46-8.13 13.34-8.67 15.87-10.14 24.67-13.74 3.73-1.6 7.6-3.6 8.67-4.4 1.06-.8 4.53-2.26 7.6-3.06 3.06-.94 8.4-3.6 12-6 3.6-2.27 8.8-5.47 11.73-6.94 2.93-1.46 7.2-4 9.33-5.46 4.27-3.07 23.87-12.54 26-12.54 2.54 0 4 5.07 2.67 8.67-.67 1.87-1.33 5.33-1.33 7.6 0 2.13-.8 5.6-1.87 7.47-.93 2-2.93 7.2-4.27 11.6-1.33 4.4-4 10.13-6.13 12.8-2 2.66-3.73 5.33-3.73 5.73 0 3.07-28.27 34.13-31.07 34.13-.67 0-3.87 2.4-7.33 5.34-6 5.33-22 14.66-25.2 14.66-2.94 0-22.67 8.94-23.74 10.8-1.33 2-8.13 1.34-12.53-1.2-3.73-2-4.4-2.13-7.6-.26-2 1.06-4.4 4.26-5.6 7.2-2 4.93-1.87 5.2 1.07 7.46 1.86 1.47 3.86 5.07 4.93 9.47 2 7.73 3.73 10.53 6.67 10.53 1.06 0 4 .94 6.4 2.14 3.6 1.73 8.8 1.86 31.46 1.46 26-.53 34-1.6 47.2-6.13 2.27-.67 8.54-2 14-2.8 24.8-3.47 26.54-4 40-13.2 13.6-9.33 17.2-14.67 17.34-26.27 0-4.93.8-9.06 2-10.66 1.06-1.34 2-3.47 2-4.67 0-1.2 1.46-4.8 3.33-8 6.93-12.27 8.67-17.33 8.67-25.33 0-4.4.53-9.2 1.33-10.54.67-1.33 1.73-5.73 2.4-9.6 1.33-9.6 3.73-9.73 10.93-.4 4.8 6.27 15.34 14.8 22.14 18 3.46 1.6 7.2 5.34 30.8 30.27 18.66 19.6 27.2 29.6 28.66 33.87.54 1.2 3.74 4.53 7.34 7.33 3.46 2.8 17.2 15.87 30.26 28.8 13.2 13.07 24.67 23.73 25.6 23.73 3.2 0 11.2 8.8 11.2 12.4 0 4.14 4.4 7.6 9.74 7.6 9.6 0 16.4-11.06 15.2-24.8-3.07-35.06-3.74-37.6-18.14-68.53-1.2-2.53-4.8-8.27-8-12.67-6.13-8.4-12.53-20.26-14-26.13-1.33-6-12.4-16.93-20.66-20.67-4.14-1.86-9.2-4.13-11.47-5.2-2.13-.93-5.47-2.13-7.33-2.4-1.87-.4-5.47-1.46-8-2.26-12.27-4.4-14.4-5.2-19.34-7.07-2.93-1.07-11.33-2.93-18.66-4.13-7.34-1.2-18.27-3.07-24.14-4.14-12.4-2.26-32-2.66-33.2-.66-.4.66-1.73 1.33-2.93 1.33-1.6 0-1.87-1.2-1.33-6.4 2-18.8 12.8-40 23.6-45.73 5.06-2.67 58-3.07 68.4-.4 9.46 2.26 22.53 2.4 28.4.26 5.33-1.86 9.33-.26 13.2 5.6 1.46 2.14 3.86 4.4 5.46 5.2 5.2 2.27 7.47-2 8.8-16.8 2.27-26.4-1.73-36.8-17.2-44.26-4.53-2.27-9.46-4.14-10.8-4.14-1.33 0-3.2-.8-4-1.6-.93-.93-8.93-2.53-18-3.46-32.13-3.34-33.6-3.34-38-1.07-2.26 1.2-6 2.13-8.26 2.13-2.27 0-5.74.8-7.74 1.74-2 1.06-7.06 2.66-11.46 3.6-7.74 1.86-7.87 1.73-10.4-1.34-1.87-2.4-2.4-4.26-1.74-7.33.4-2.13 2-13.33 3.34-24.67 2.66-22.26 4.13-30.4 6.13-33.46.67-1.07 1.2-9.74 1.33-19.2.14-12.94.67-18.67 2.27-22.54 1.33-2.8 2.27-6.4 2.27-8 0-1.6.53-3.46 1.2-4.26.66-.67 2.13-4.67 3.46-8.94l2.4-7.73-3.86-7.33c-4.54-8.8-16.54-21.47-22.54-24.003-2.4-.934-6.13-3.2-8.13-4.934-2.13-1.733-4.8-3.6-5.87-4-1.06-.533-4.66-2.4-7.86-4.266-5.07-2.934-7.6-3.334-18-3.334-9.87 0-12.94.534-16.27 2.667Zm-586.533 51.47c-2.134 1.06-6.667 4.53-10 7.73-5.734 5.33-18.4 14.13-20.534 14.13-.533 0-4.4 2.67-8.533 6-7.067 5.47-10.8 7.74-24.667 15.34-2.8 1.6-9.066 5.46-13.733 8.8-4.8 3.2-9.067 5.86-9.467 5.86-.533 0-2.133 1.2-3.6 2.54-6.666 6.13-23.866 17.46-34.4 22.53-13.2 6.4-15.2 8.27-13.066 12.13.8 1.6 2.133 2.8 2.8 2.8.8 0 3.333 1.6 5.6 3.47 2.933 2.4 5.066 3.2 7.466 2.8 4.8-1.07 13.867 1.47 22.267 6 8.267 4.27 18.8 5.07 26.667 1.73 4.266-1.73 5.466-1.73 12.933.8 4.533 1.47 9.2 3.47 10.267 4.27 3.066 2.53 8 9.87 8 12.13 0 2.14-8.8 8.8-11.467 8.8-.8 0-2.267.94-3.2 2-.933 1.07-2.533 2-3.733 2-1.067 0-5.867 1.74-10.534 4-4.533 2.14-9.066 4-9.866 4-.8 0-3.067.8-4.934 1.87-3.333 1.73-5.466 2.67-18.533 8.27-2.8 1.2-6 2.66-7.067 3.33-2.266 1.33-2.266 1.33-11.333 4.4-5.067 1.6-11.733 2.13-28.133 2.13-17.467 0-21.867.4-23.2 2-.934 1.07-2.4 2-3.2 2-2.534 0-8.8 7.2-8.8 10.14 0 1.46.933 3.86 2 5.33 1.333 1.73 2 6 2 13.2 0 9.47.533 11.33 4 16.93 6 9.6 9.2 11.07 22.666 10.94 12.667-.27 33.334-4.67 38.667-8.54 1.867-1.33 5.467-3.33 8-4.4 2.533-1.2 7.733-3.86 11.333-6.13 14.134-8.27 37.334-19.07 38.534-17.87 4 4.14-6.667 21.6-23.067 37.74-5.6 5.6-12.533 13.73-15.333 18-2.934 4.4-7.467 11.33-10 15.33-6.934 10.67-47.467 51.47-52.667 52.93-2.267.67-4.8 2.54-5.6 4.14-.8 1.73-3.067 4.8-5.067 6.8-3.066 3.2-3.466 4.66-3.466 12.53 0 5.07.933 11.2 2.133 14.27 2.267 5.6 8.8 10.66 13.867 10.66 2.666 0 10-2.66 14.666-5.33 1.067-.67 5.2-2.8 9.2-4.67 10.134-5.06 19.867-11.46 28.934-19.2 4.266-3.73 8.666-6.8 9.6-6.8 4 0 12.8-7.46 29.466-25.2 24-25.46 23.334-25.6 23.734 5.6.266 17.07.933 25.47 2.4 29.74 1.066 3.33 2 10 2 14.93.133 13.07 9.2 36.93 15.866 41.33 2.4 1.6 3.2 1.2 8.8-3.86 3.334-3.07 6.4-7.2 6.934-9.07.4-1.87 1.466-4.4 2.266-5.47.934-1.06 2.667-4.53 4-7.46 2.534-5.87 2.534-5.87-.533-39.2-1.733-19.2-.8-50.27 1.867-57.87 2.933-8.53 4.266-8.67 24.133-1.87 2.267.8 7.467 1.87 11.733 2.54 4.4.66 8.4 1.6 9.2 2 .667.53 4.667 1.33 8.8 1.86 9.734 1.34 15.467 3.6 22.934 9.07 3.2 2.4 7.066 4.27 8.666 4 2.534-.4 2.667-1.33 2.934-25.73.266-28 .4-27.2-9.067-34.4-2.533-1.87-8.8-5.74-13.867-8.4-8.933-4.54-10-4.8-30-6-11.333-.8-23.2-1.74-26.266-2-6.534-.8-9.067-3.87-7.2-8.8 4-10 6.133-19.07 6.8-29.07l.666-11.2 5.467-3.87c4.267-2.93 7.467-4 14-4.4 12.133-.93 13.867-1.46 18.533-5.33 6.134-5.33 8.4-10.53 7.334-17.33-1.734-11.87-12.534-19.2-28.134-19.2-9.6 0-13.866-1.6-13.866-5.07 0-4.53 4.8-11.07 11.866-16 6-4.13 8.134-6.8 12.934-16.27 3.6-7.06 5.866-13.06 5.866-16 0-8.66-4-26.8-8.8-40.4-1.066-2.66-1.866-6.93-1.866-9.33 0-5.07-2.4-7.47-11.334-11.47-7.466-3.33-17.066-3.6-22.666-.66Z"/>
  <path fill="#000" d="M831.133 1082.33c-2.8 1.2-8.533 2-15.6 2h-11.066l-3.467 4.94c-3.867 5.73-4.533 14.4-1.333 18.53 1.066 1.33 2 3.73 2 5.33 0 1.47.933 3.87 2 5.34 1.066 1.33 2 3.73 2 5.33 0 3.47 6.933 10.67 13.6 14 6 3.07 11.866 3.2 17.066.53 2.134-1.06 9.334-2.4 16-2.93 13.2-.93 12.267-.4 23.334-13.47 6.666-7.86 8-11.46 6.8-18.26-1.067-5.2-9.467-13.2-16-15.2-2.267-.67-7.467-2.54-11.467-4.27-9.333-3.73-18-4.4-23.867-1.87ZM347 1149.93c-3.333.67-12 1.74-19.333 2.27-14.267 1.07-17.867 1.73-50 8.13-3.334.67-9.867 2.14-14.667 3.34-9.2 2.26-18.267 3.73-35.333 6-16.134 2-24.934 3.6-29.067 5.2-2.133.8-8.267 1.46-13.867 1.46-5.866 0-11.466.8-13.466 1.87-9.2 4.67-14.267 6.13-21.867 6.13-7.867 0-8.267-.13-13.6-6-3.333-3.46-6.8-6-8.533-6-4.134 0-21.867 8.54-25.2 12.14-1.6 1.73-4.134 6.13-5.734 9.6-1.6 3.46-3.333 6.26-3.866 6.26-.667 0-3.334-2.13-6-4.8-6.267-6.26-10.267-5.73-22.534 2.67-4.933 3.33-9.466 6.13-10.133 6.13-.533 0-3.2 1.74-5.6 4-2.533 2.14-4.933 4-5.467 4-.666 0-7.066 4.54-14.533 10-7.333 5.47-14.267 10-15.467 10-4.133 0-10.8 5.34-11.733 9.34-.933 4 3.6 21.46 6.533 25.2 1.467 2 4.267 11.06 5.6 18.8 1.067 5.73 2.4 7.46 9.2 11.73 4.4 2.8 7.067 3.47 14.667 3.47 11.733.13 15.2-1.87 19.867-11.47 1.866-3.87 4.533-8.93 6.133-11.07 1.467-2.26 2.667-6 2.667-8.4 0-4.4 5.2-15.6 10.266-21.73 2.8-3.6 16.934-30.4 18.267-34.93.8-2.54 4.933-2.14 11.733 1.2 5.067 2.66 38.534 2.53 48.8-.14 9.734-2.4 29.334-6 33.2-6 1.6 0 4.534-.8 6.667-1.86 5.867-2.94 12.267-4.94 22.4-6.94 10-2.13 15.067-3.2 28.667-6.53 4.8-1.2 15.066-2.93 23.066-4 7.867-1.07 15.067-2.4 16-2.93.8-.54 11.2-1.47 22.934-2 11.733-.54 26.133-1.34 32.133-1.74 10.267-.8 10.933-.66 14.933 2.67 5.467 4.53 5.334 7.2-.4 15.73-7.733 11.6-6.133 23.6 3.334 23.6 2.266 0 5.333 1.34 7.466 3.34 3.734 3.46 10.267 4.26 15.867 2.13 1.6-.67 4.667-.4 7.467.53 10.133 3.6 21.2 3.74 30.533.67 4.8-1.6 9.733-4.27 10.933-5.87 3.867-4.66 3.067-12.4-2.266-20.8-5.2-8.53-10-18.26-10-20.66 0-2.8-5.2-5.87-27.334-16.14-4.4-2-10.4-5.2-13.333-7.06-9.067-5.87-10.533-6.67-16-9.47-5.867-2.93-5.467-2.8-14-1.07Z"/>
  <path fill="#000" d="M285.4 1204.47c-3.467.53-6.933 1.33-7.733 1.86-.667.4-4.134 1.34-7.734 2-8.666 1.74-21.466 4.8-26.266 6.54-10 3.46-18.134 5.46-22.267 5.46-4.667 0-15.2 2.94-21.467 6.14-2.133 1.06-5.066 1.86-6.4 1.86-1.466 0-4 .67-5.6 1.6-5.733 3.2-36.266 6.27-38.666 3.87-4.134-4.13-10.8.93-12 9.07-.8 6.53.533 11.33 3.6 12.53 1.066.4 5.333-.93 9.333-3.07 8.533-4.53 17.867-5.33 25.733-2 2.534 1.07 6.4 2 8.4 2 5.734 0 8 1.34 8 4.54 0 6.4-18.933 24.53-30.4 29.2-3.466 1.46-7.466 3.06-8.933 3.73-1.467.53-4.8 1.6-7.333 2.27-3.2.8-5.867 2.8-8.4 6.4-3.334 4.66-3.6 6-3.067 13.2 1.6 19.33 2.933 24.4 8.133 30.66 4.4 5.47 5.334 6 10.667 6 3.2 0 6.267-.53 6.667-1.33.4-.67 4.133-2.8 8-4.67 5.6-2.53 7.866-4.4 9.6-8.26 2.8-5.87 6.133-6.94 22.666-6.94 6.134 0 13.2-.66 15.734-1.6 4-1.46 4.933-1.46 7.333.8 2.133 2 2.667 4 2.667 11.6 0 5.07-.667 10.4-1.334 11.74-1.333 2.53-6.4 4.53-16.666 6.66-2.934.67-8 1.87-11.334 2.67-3.333.8-8.666 2.13-12 2.93-3.333.8-9.6 2.27-14 3.34-4.4 1.2-14.933 2.4-23.333 2.93-16.267.8-18.933 1.87-23.2 8.4-2.267 3.47-2.267 4.13-.267 10 1.2 3.33 2.134 7.47 2.134 8.93 0 3.6 4 14.27 6.4 17.07 2.8 3.2 6.8 2.93 15.733-.93 4.133-1.87 9.6-3.34 12.133-3.34 2.4 0 6.667-.93 9.334-2 2.533-1.06 8.666-2 13.333-2h8.667l8.266-8c7.734-7.46 8.8-8 14.534-8 3.333 0 6.533.67 7.066 1.6 1.734 2.67.534 22.54-1.466 26.4-2.8 5.47-7.2 7.6-17.067 8.54-4.8.4-11.333 1.86-14.533 3.46-8.4 4-41.2 6.14-51.734 3.34-4-1.07-8.4-2-9.733-2-1.2 0-4.8-1.6-7.733-3.6-7.067-4.67-11.467-3.34-14.134 4.26-2.133 5.74-4 39.47-2.533 45.07.533 2.53 2.267 3.87 7.333 5.6 7.2 2.4 8.8 2 21.2-5.47 5.067-2.93 6.267-3.2 10.4-1.86 2.534.93 5.734 1.2 6.934.66 1.2-.53 8.933-1.46 16.933-2.13 10-.67 17.067-2 22-4 4-1.6 12.133-3.33 18-3.87 6.933-.66 13.2-2.26 18-4.4 9.6-4.4 23.867-6.8 35.467-5.86 5.066.53 23.066 1.2 39.866 1.6 16.934.4 33.6 1.33 37.067 2.13 4.8 1.07 7.333 1.07 10.267-.13 4.8-2 8.133-.94 17.2 5.46 5.333 3.87 8.533 5.2 12.266 5.2 6.667 0 9.467-3.6 7.6-9.73a84.909 84.909 0 0 0-9.066-18.93c-1.867-2.94-4.4-8-5.734-11.34-3.6-9.33-11.066-14.66-22.666-16.26-5.334-.8-12-1.34-14.934-1.34-11.333.27-41.866 2.67-51.733 4-11.333 1.6-16.267.67-17.333-3.33-.4-1.33-.267-8.67.133-16.4 1.2-17.33 1.6-17.73 19.6-16.53 7.333.53 14.933.26 19.467-.67 6.666-1.33 9.066-1.2 19.866 1.33 16.267 3.87 16.534 3.74 17.067-11.86.4-11.47.133-12.27-3.067-15.2-8.8-8.27-17.866-10.4-43.066-10.4-19.867 0-21.6-.14-22.934-2.54-.666-1.46-1.333-4.4-1.333-6.4 0-2.13-.8-7.06-1.867-10.93-1.733-6.93-1.733-7.33 1.334-10.4 1.733-1.6 4.533-3.07 6.266-3.07 1.867 0 5.467-.93 8-2 6.8-2.8 10.267-2.53 14.934 1.34 4.933 4.13 12 7.33 16.133 7.33 4.667 0 11.467-3.73 15.067-8.4 4.4-5.2 4.8-19.33.933-25.73-2.533-4.27-14.533-12.8-28.133-19.87-8-4.27-20.667-15.73-20.667-18.8 0-2.13 2.667-4.13 7.333-5.33 5.734-1.47 12.667-6 18.4-12.4 11.867-13.07 1.867-23.47-19.333-20Zm-24.8 50.8c6.667 10.13 8 14.66 5.2 17.86-3.2 4.14-30.533 11.74-38.8 10.94-4.133-.4-4.667-.94-5.067-4.54-.4-3.46.4-4.93 4.934-8.53 3.066-2.27 5.466-4.93 5.466-5.73 0-.94.667-3.74 1.334-6.54 1.733-5.86 8.666-10.13 16.933-10.26 5.2-.14 5.733.26 10 6.8Zm1047.73 331.6c-16.8 3.2-24.13 5.86-33.86 12.26-10.27 6.8-17.87 16-24.14 28.8-4.8 9.74-4.93 10.54-4.93 25.07 0 11.07.53 16 2.13 19.07 1.2 2.26 2.14 4.8 2.14 5.73 0 5.73 19.86 26.53 25.33 26.53.93 0 3.2.8 5.07 1.87 9.06 4.67 30.26 8.8 45.73 8.8 11.6 0 29.73-2.13 39.87-4.8 4-1.07 9.06-2 11.33-2.13 3.2-.27 4.13-1.2 5.07-4.67.66-2.27.8-6.4.4-9.07-.8-4.26-1.34-4.8-3.87-4.13-3.07.93-19.73 2.8-37.2 4.27-15.47 1.33-25.07-1.07-32.4-8.27-3.2-3.07-6.27-7.33-6.67-9.47-.53-2-1.73-6-2.8-8.8-2.13-5.73-2.53-28.53-.53-33.2.67-1.73 1.87-5.6 2.67-8.8 1.86-7.2 9.6-15.86 17.2-19.33 4.93-2.13 8.66-2.53 24-2.4 12 .13 20.4.8 24.66 2.13 12.8 3.87 15.6 2.67 15.34-7.06-.14-9.2-1.07-10-12.67-12-17.6-2.94-47.2-3.07-61.87-.4Zm-1297.197 2c-.933 1.06-1.466 4.8-1.2 8.4l.4 6.4 22.134.4c16.4.26 22.666.8 23.733 2.13.933 1.07 1.6 18.53 1.733 53.6l.4 51.87h48l.667-52.27c.4-32.93 1.2-52.8 2-53.6.8-.8 10.533-1.6 22.667-1.73l21.333-.4v-16l-70.133-.4c-59.6-.27-70.4 0-71.734 1.6Zm181.2.8c-1.466 1.46-2.666 3.6-2.666 4.8 0 1.2-.8 3.73-1.867 5.6-.933 2-2.667 5.73-3.867 8.26-1.066 2.54-3.866 8.67-6.133 13.74-2.267 4.93-4.133 9.6-4.133 10.26 0 .8-2.667 6.94-6 13.74-3.334 6.93-6 13.06-6 13.86 0 .8-.934 3.2-2 5.34-3.067 5.86-10 21.6-10 22.66 0 .4-1.734 4.54-4 9.2-2.134 4.54-4.267 9.87-4.8 11.74l-.8 3.46h37.6l1.866-4.4c1.734-4 3.467-8.53 7.467-19.6.933-2.53 2-6.26 2.267-8.4 1.2-6.4 4.533-7.6 22.666-7.6h16.4l1.467 3.6c4.8 12 6.933 17.47 7.867 21.07.666 2.13 2 6.4 3.066 9.33l2 5.34 26.8.4c27.334.26 28.134.13 25.6-4.8-.666-1.2-3.2-7.07-5.466-12.94-2.4-5.86-5.067-12.53-6-14.66-.934-2.27-2.667-6.4-3.734-9.34-4.4-11.73-6.533-17.33-12.133-30.4-1.2-2.8-2.133-5.6-2.133-6.4 0-.66-1.734-4.93-3.867-9.6-2.133-4.53-4.8-10.66-5.867-13.6-5.733-15.2-8-20.13-10-21.73-1.466-1.07-9.066-1.6-26.533-1.6-22.667 0-24.533.13-27.067 2.67Zm22.267 39.73c2 5.33 5.467 16.4 6.667 21.47 1.066 4.13-1.334 5.46-10.267 5.46-10.4 0-11.333-.93-9.733-8.93 2.666-12 8.8-25.73 10.8-23.73.4.4 1.6 2.93 2.533 5.73Zm97.867-40.67c-1.067 1.47-1.467 18.27-1.2 62.4l.4 60.54H361v-124l-23.467-.4c-18.8-.27-23.866 0-25.066 1.46Zm69.466-.13c-1.2 1.6-.533 5.2 3.734 19.07.666 2.13 1.866 6.66 2.666 10 .934 3.33 2.134 7.73 2.8 10 2.934 8.66 9.2 30.8 10.534 36.66 1.066 4.67 3.2 10.94 5.733 17.34.667 1.86 1.867 5.73 2.4 8.66 1.467 7.47 4 16.94 5.2 19.34.8 1.6 5.067 2 23.333 2.4 14.667.26 22.934-.14 24.134-1.07.933-.8 2.266-4 2.933-7.07.8-3.06 2-7.46 2.667-9.6.8-2.26 2.4-7.6 3.6-12 1.2-4.4 2.8-9.86 3.6-12 .666-2.26 1.866-6 2.4-8.53.666-2.53 2.133-5.47 3.333-6.67 2.667-2.66 4-.93 5.2 6.94.533 3.06 1.467 6.13 2 6.93.667.67 1.467 3.07 1.867 5.33 2 9.87 4.666 20.4 6 22.67.8 1.47 1.866 4.8 2.266 7.47.4 2.8 1.6 5.6 2.534 6.4 1.2 1.06 9.333 1.46 24.933 1.2 22-.4 23.2-.54 23.6-3.07.267-1.47 1.333-4.53 2.267-6.67.933-2.26 2.933-7.86 4.4-12.66 3.066-9.6 4-12.27 8.933-26.67 1.867-5.47 4.667-13.87 6.267-18.67 1.466-4.8 3.466-10.8 4.4-13.33 2.933-8.4 4.8-13.87 7.466-22.67 1.6-4.8 3.734-10.8 4.8-13.6 1.067-2.66 1.6-5.46 1.2-6.26-1.2-1.87-29.333-2-32.933-.14-1.333.8-2.533 2.54-2.533 4 0 1.47-.8 4.54-1.867 6.94-1.733 4.26-4.267 12.8-5.6 19.73-.4 1.87-1.2 4.53-1.867 6-.533 1.47-2.4 7.2-4 12.67-1.6 5.46-3.6 12.4-4.4 15.33-.933 2.93-2.4 5.33-3.466 5.33-1.867 0-2.534-1.86-9.067-24.66-1.067-4-2.933-9.6-3.867-12.4-1.066-2.67-1.866-6.4-1.866-8.14 0-1.73-.934-5.33-2-7.86-1.067-2.67-2-6.27-2-8 0-1.87-1.2-4.8-2.8-6.8l-2.8-3.6-18.667.4-18.667.4-2.533 7.33c-1.333 4-2.533 8.27-2.533 9.6 0 1.2-.8 4.27-1.867 6.67-1.067 2.4-2.8 7.86-4 12-1.2 4.26-3.067 11.2-4.267 15.33-1.2 4.27-2.666 8.67-3.2 9.87-.666 1.2-1.6 4.4-2 7.06-.533 2.67-1.6 4.8-2.533 4.8-1.467 0-6.133-13.33-6.267-18 0-1.46-.8-4.13-1.866-6-1.067-1.86-1.867-4.8-2-6.53 0-1.73-.934-6-2-9.6-1.067-3.6-2.934-9.47-4-13.07-1.067-3.6-2-8-2-9.73 0-1.87-1.2-4.93-2.8-6.93L424.2 1587h-20.533c-14.667 0-20.667.4-21.734 1.6Zm245.6-.53c-1.733 1.06-9.866 17.6-9.866 20 0 .8-.8 3.06-1.867 5.2-6.533 13.2-10.133 21.2-10.133 22.26 0 1.2-6 14.8-10 22.54-1.067 2.13-2 4.53-2 5.46 0 .94-1.734 5.07-4 9.2-2.134 4.14-4 8.14-4 8.94 0 1.33-6.667 16.66-10.134 22.93-4.133 7.6-3.733 7.73 17.467 7.73h19.333l.8-3.6c.534-2 1.734-5.06 2.667-6.93 1.067-1.87 1.867-4.53 1.867-5.73 0-1.34.8-4.27 1.866-6.67 1.067-2.4 2.267-5.87 2.667-7.73.4-1.87 2-4.67 3.467-6.4 2.533-2.67 4-2.94 18.533-2.94 17.2 0 18.933.67 21.467 8.8.666 2.14 2.666 8 4.533 13.2 1.867 5.07 3.467 10.4 3.467 11.6 0 1.2.933 3.2 2.133 4.27 3.067 3.2 52.267 3.2 53.467.13.4-1.2-.267-3.2-1.467-4.53-1.2-1.33-2.133-3.33-2.133-4.4 0-1.2-.8-3.87-1.867-6-1.867-3.6-8.4-19.6-12.133-29.73-4.134-10.94-7.734-19.47-8.8-20.67-.667-.67-1.2-2.4-1.2-4 0-1.47-.934-3.87-2-5.2-1.067-1.47-2-3.47-2-4.53 0-1.07-1.6-5.34-3.467-9.47-2-4-4-8.93-4.667-10.8-2.266-7.47-6.533-17.73-8.533-20.8-2-3.2-2.133-3.2-27.067-3.2-13.733 0-25.6.53-26.4 1.07Zm19.2 39.2c.934 1.73 2.534 5.73 3.734 9.06 6 16.67 5.2 20-4.934 20-8.8 0-11.866-1.73-11.866-6.66 0-2.14.533-4.14 1.066-4.54.534-.4 2.534-5.2 4.4-10.66 3.334-10.54 5.067-12.14 7.6-7.2Zm101.734-38.4c-1.067 1.2-1.334 18.66-1.2 62.26l.4 60.54 15.066.4 14.934.4v-36.67c0-24.8.4-36.93 1.466-37.47 1.6-1.06 6.534 5.2 10 12.67.534 1.07 8.134 13.87 16.8 28.4 8.667 14.4 15.734 26.8 15.734 27.47 0 .53 1.066 2 2.4 3.2 2 1.86 5.6 2.26 19.866 2.26 17.067 0 17.467-.13 22.667-3.86 2.933-2.14 6.8-5.87 8.533-8.4l3.2-4.4.4-52.8c.4-44.8.134-52.94-1.466-54.4-1.334-1.07-6.134-1.47-14.4-1.2l-12.534.4-.4 34.66c-.133 18.94-.8 35.07-1.466 35.74-.934.93-10.8-11.07-10.8-13.2 0-.4-1.734-3.34-3.734-6.4-2-2.94-4.133-6.4-4.666-7.47-.534-1.07-2.134-3.87-3.6-6-1.467-2.27-3.067-4.93-3.6-6-.4-1.07-2.534-4.53-4.667-7.6-2-3.07-3.733-5.87-3.733-6.13 0-1.34-9.6-15.07-11.734-16.67-3.2-2.4-51.333-2.27-53.466.27Zm217.733 0c-.4.93-.533 4.66-.267 8.26l.4 6.54 22.4.66c17.867.54 22.667 1.07 23.597 2.67.8 1.2 1.34 23.47 1.34 53.6v51.73h48v-51.73c0-30.13.53-52.4 1.33-53.6.93-1.6 5.73-2.13 23.6-2.67l22.4-.66.4-6.4c.27-3.6-.27-7.34-1.2-8.4-2.27-2.8-140.933-2.8-142 0Zm154.8-.27c-.4.93-.53 29.07-.4 62.4l.4 60.67h116l.4-7.2c.27-4.94-.13-7.6-1.33-8.27-.94-.67-15.6-1.2-32.4-1.2-22.14 0-31.2-.4-32.4-1.6-2.27-2.27-2.27-31.2.13-32.67.8-.53 12.67-1.33 26.27-1.73l24.66-.67V1641l-26-.67-26-.66-.4-15.34c-.13-8.4.27-16.26 1.07-17.33 1.07-1.6 6.8-2.13 33.6-2.67l32.4-.66v-16l-57.73-.4c-45.47-.27-57.87 0-58.27 1.33Zm279.73-.53c-1.33.8-1.73 15.06-1.73 60.93v61.6c0 1.33 6 1.73 25.33 1.73h25.34l.26-28.4.4-28.26 16.27-.4c15.33-.27 16.4-.14 17.73 2.4.94 1.73 1.47 11.6 1.34 27.06-.14 13.34-.14 25.07-.14 25.87.14 1.33 4.14 1.73 15.74 1.73 15.46 0 15.73-.13 21.86-4.26 10.67-7.2 10.4-6 10.54-65.74.13-29.06-.27-53.33-.67-54-1.2-1.86-45.6-1.73-46.8.14-.4.8-.8 11.2-.67 23.06.14 11.74-.26 22.27-.93 23.2-.8 1.2-5.33 1.6-17.73 1.34l-16.54-.4-.66-24-.67-24-23.33-.27c-12.8-.27-24.14.13-24.94.67Z"/>
</svg>
